<svg width="542pt" height="131pt" viewBox="0.00 0.00 541.76 130.80" xmlns="http://www.w3.org/2000/svg" xmlns:xlink="http://www.w3.org/1999/xlink">
  <g id="graph0" class="graph" transform="scale(1 1) rotate(0) translate(4 126.8)">
  <!-- 1 -->
  <g id="1" class="node">
  <title>1</title>
  <ellipse fill="none" stroke="black" cx="508.55" cy="-61.4" rx="25.21" ry="14.4"></ellipse>
  <text text-anchor="middle" x="508.55" y="-58.4" font-family="monospace" font-size="10.00" fill="black">out 0</text>
  </g>
  <!-- 2 -->
  <g id="2" class="node">
  <title>2</title>
  <ellipse fill="none" stroke="black" cx="424.41" cy="-37.4" rx="21.93" ry="14.4"></ellipse>
  <text text-anchor="middle" x="424.41" y="-34.4" font-family="monospace" font-size="10.00" fill="black">mul</text>
  </g>
  <!-- 2&#45;&gt;1 -->
  <g id="0" class="edge">
  <title>2-&gt;1</title>
  <path fill="none" stroke="black" d="M444.88,-43.09C453.77,-45.69 464.55,-48.84 474.65,-51.79"></path>
  <polygon fill="black" stroke="black" points="473.59,-55.12 484.17,-54.57 475.55,-48.4 473.59,-55.12"></polygon>
  </g>
  <!-- 17 -->
  <g id="17" class="node">
  <title>17</title>
  <ellipse fill="none" stroke="black" cx="508.55" cy="-14.4" rx="25.21" ry="14.4"></ellipse>
  <text text-anchor="middle" x="508.55" y="-11.4" font-family="monospace" font-size="10.00" fill="black">out 1</text>
  </g>
  <!-- 2&#45;&gt;17 -->
  <g id="0" class="edge">
  <title>2-&gt;17</title>
  <path fill="none" stroke="black" d="M444.88,-31.95C453.7,-29.48 464.39,-26.49 474.42,-23.68"></path>
  <polygon fill="black" stroke="black" points="475.18,-27.1 483.87,-21.03 473.29,-20.36 475.18,-27.1"></polygon>
  </g>
  <!-- 3 -->
  <g id="3" class="node">
  <title>3</title>
  <ellipse fill="none" stroke="black" cx="313.05" cy="-61.4" rx="18.84" ry="14.4"></ellipse>
  <text text-anchor="middle" x="313.05" y="-58.4" font-family="monospace" font-size="10.00" fill="black">lpf</text>
  </g>
  <!-- 3&#45;&gt;2 -->
  <g id="0" class="edge">
  <title>3-&gt;2</title>
  <path fill="none" stroke="black" d="M331.62,-57.54C347.9,-53.97 372.48,-48.58 392.11,-44.27"></path>
  <polygon fill="black" stroke="black" points="392.79,-47.7 401.81,-42.14 391.29,-40.87 392.79,-47.7"></polygon>
  <text text-anchor="middle" x="380.6" y="-49.4" font-family="monospace" font-size="10.00" fill="black">in</text>
  </g>
  <!-- 4 -->
  <g id="4" class="node">
  <title>4</title>
  <ellipse fill="none" stroke="black" cx="153.17" cy="-108.4" rx="30.61" ry="14.4"></ellipse>
  <text text-anchor="middle" x="153.17" y="-105.4" font-family="monospace" font-size="10.00" fill="black">saw 55</text>
  </g>
  <!-- 4&#45;&gt;3 -->
  <g id="0" class="edge">
  <title>4-&gt;3</title>
  <path fill="none" stroke="black" d="M179.54,-100.85C208.16,-92.33 254.58,-78.51 284.2,-69.69"></path>
  <polygon fill="black" stroke="black" points="284.98,-73.11 293.57,-66.9 282.98,-66.4 284.98,-73.11"></polygon>
  <text text-anchor="middle" x="237.45" y="-88.4" font-family="monospace" font-size="10.00" fill="black">in</text>
  </g>
  <!-- 6 -->
  <g id="6" class="node">
  <title>6</title>
  <ellipse fill="none" stroke="black" cx="153.17" cy="-61.4" rx="54.34" ry="14.4"></ellipse>
  <text text-anchor="middle" x="153.17" y="-58.4" font-family="monospace" font-size="10.00" fill="black">range 0.40 0.80</text>
  </g>
  <!-- 6&#45;&gt;3 -->
  <g id="1" class="edge">
  <title>6-&gt;3</title>
  <path fill="none" stroke="black" d="M207.62,-61.4C232.6,-61.4 261.39,-61.4 282.41,-61.4"></path>
  <polygon fill="black" stroke="black" points="282.28,-64.9 292.28,-61.4 282.28,-57.9 282.28,-64.9"></polygon>
  <text text-anchor="middle" x="237.45" y="-64.4" font-family="monospace" font-size="10.00" fill="black">cutoff</text>
  </g>
  <!-- 7 -->
  <g id="7" class="node">
  <title>7</title>
  <ellipse fill="none" stroke="black" cx="27.52" cy="-61.4" rx="27.52" ry="14.4"></ellipse>
  <text text-anchor="middle" x="27.52" y="-58.4" font-family="monospace" font-size="10.00" fill="black">sine 1</text>
  </g>
  <!-- 7&#45;&gt;6 -->
  <g id="0" class="edge">
  <title>7-&gt;6</title>
  <path fill="none" stroke="black" d="M55.35,-61.4C64.83,-61.4 75.95,-61.4 87.21,-61.4"></path>
  <polygon fill="black" stroke="black" points="86.95,-64.9 96.95,-61.4 86.95,-57.9 86.95,-64.9"></polygon>
  <text text-anchor="middle" x="76.94" y="-64.4" font-family="monospace" font-size="10.00" fill="black">in</text>
  </g>
  <!-- 11 -->
  <g id="11" class="node">
  <title>11</title>
  <ellipse fill="none" stroke="black" cx="313.05" cy="-14.4" rx="45.66" ry="14.4"></ellipse>
  <text text-anchor="middle" x="313.05" y="-11.4" font-family="monospace" font-size="10.00" fill="black">range 0.25 1</text>
  </g>
  <!-- 11&#45;&gt;2 -->
  <g id="1" class="edge">
  <title>11-&gt;2</title>
  <path fill="none" stroke="black" d="M351.99,-22.38C364.99,-25.11 379.38,-28.14 391.82,-30.76"></path>
  <polygon fill="black" stroke="black" points="391.06,-34.17 401.56,-32.8 392.5,-27.32 391.06,-34.17"></polygon>
  </g>
  <!-- 12 -->
  <g id="12" class="node">
  <title>12</title>
  <ellipse fill="none" stroke="black" cx="153.17" cy="-14.4" rx="27.52" ry="14.4"></ellipse>
  <text text-anchor="middle" x="153.17" y="-11.4" font-family="monospace" font-size="10.00" fill="black">sine 4</text>
  </g>
  <!-- 12&#45;&gt;11 -->
  <g id="0" class="edge">
  <title>12-&gt;11</title>
  <path fill="none" stroke="black" d="M180.95,-14.4C201.4,-14.4 230.29,-14.4 255.76,-14.4"></path>
  <polygon fill="black" stroke="black" points="255.66,-17.9 265.66,-14.4 255.66,-10.9 255.66,-17.9"></polygon>
  <text text-anchor="middle" x="237.45" y="-17.4" font-family="monospace" font-size="10.00" fill="black">in</text>
  </g>
  </g>
  </svg>