<svg width="619pt" height="84pt" viewBox="0.00 0.00 619.22 83.80" xmlns="http://www.w3.org/2000/svg" xmlns:xlink="http://www.w3.org/1999/xlink">
<g id="graph0" class="graph" transform="scale(1 1) rotate(0) translate(4 79.8)">
<!-- 1 -->
<g id="1" class="node">
<title>1</title>
<ellipse fill="none" stroke="black" cx="586.01" cy="-61.4" rx="25.21" ry="14.4"></ellipse>
<text text-anchor="middle" x="586.01" y="-58.4" font-family="monospace" font-size="10.00" fill="black">out 0</text>
</g>
<!-- 2 -->
<g id="2" class="node">
<title>2</title>
<ellipse fill="none" stroke="black" cx="501.87" cy="-37.4" rx="21.93" ry="14.4"></ellipse>
<text text-anchor="middle" x="501.87" y="-34.4" font-family="monospace" font-size="10.00" fill="black">mul</text>
</g>
<!-- 2&#45;&gt;1 -->
<g id="0" class="edge">
<title>2-&gt;1</title>
<path fill="none" stroke="black" d="M522.34,-43.09C531.23,-45.69 542.01,-48.84 552.11,-51.79"></path>
<polygon fill="black" stroke="black" points="551.04,-55.12 561.62,-54.57 553.01,-48.4 551.04,-55.12"></polygon>
</g>
<!-- 16 -->
<g id="16" class="node">
<title>16</title>
<ellipse fill="none" stroke="black" cx="586.01" cy="-14.4" rx="25.21" ry="14.4"></ellipse>
<text text-anchor="middle" x="586.01" y="-11.4" font-family="monospace" font-size="10.00" fill="black">out 1</text>
</g>
<!-- 2&#45;&gt;16 -->
<g id="0" class="edge">
<title>2-&gt;16</title>
<path fill="none" stroke="black" d="M522.34,-31.95C531.16,-29.48 541.85,-26.49 551.87,-23.68"></path>
<polygon fill="black" stroke="black" points="552.64,-27.1 561.32,-21.03 550.75,-20.36 552.64,-27.1"></polygon>
</g>
<!-- 3 -->
<g id="3" class="node">
<title>3</title>
<ellipse fill="none" stroke="black" cx="413.85" cy="-61.4" rx="22.31" ry="14.4"></ellipse>
<text text-anchor="middle" x="413.85" y="-58.4" font-family="monospace" font-size="10.00" fill="black">sine</text>
</g>
<!-- 3&#45;&gt;2 -->
<g id="0" class="edge">
<title>3-&gt;2</title>
<path fill="none" stroke="black" d="M434.8,-55.83C445.41,-52.87 458.67,-49.17 470.53,-45.87"></path>
<polygon fill="black" stroke="black" points="471.18,-49.32 479.87,-43.26 469.3,-42.58 471.18,-49.32"></polygon>
<text text-anchor="middle" x="458.05" y="-52.4" font-family="monospace" font-size="10.00" fill="black">in</text>
</g>
<!-- 4 -->
<g id="4" class="node">
<title>4</title>
<ellipse fill="none" stroke="black" cx="195.58" cy="-61.4" rx="69.02" ry="14.4"></ellipse>
<text text-anchor="middle" x="195.58" y="-58.4" font-family="monospace" font-size="10.00" fill="black">seq 110 220 330 440</text>
</g>
<!-- 4&#45;&gt;3 -->
<g id="0" class="edge">
<title>4-&gt;3</title>
<path fill="none" stroke="black" d="M265.01,-61.4C303.36,-61.4 349.44,-61.4 379.85,-61.4"></path>
<polygon fill="black" stroke="black" points="379.56,-64.9 389.56,-61.4 379.56,-57.9 379.56,-64.9"></polygon>
<text text-anchor="middle" x="328.07" y="-64.4" font-family="monospace" font-size="10.00" fill="black">freq</text>
</g>
<!-- 5 -->
<g id="5" class="node">
<title>5</title>
<ellipse fill="none" stroke="black" cx="38.33" cy="-36.4" rx="38.33" ry="14.4"></ellipse>
<text text-anchor="middle" x="38.33" y="-33.4" font-family="monospace" font-size="10.00" fill="black">impulse 2</text>
</g>
<!-- 5&#45;&gt;4 -->
<g id="0" class="edge">
<title>5-&gt;4</title>
<path fill="none" stroke="black" d="M74.17,-42.01C90.24,-44.6 109.86,-47.76 128.56,-50.77"></path>
<polygon fill="black" stroke="black" points="127.82,-54.19 138.25,-52.33 128.93,-47.28 127.82,-54.19"></polygon>
<text text-anchor="middle" x="101.61" y="-50.4" font-family="monospace" font-size="10.00" fill="black">trig</text>
</g>
<!-- 11 -->
<g id="11" class="node">
<title>11</title>
<ellipse fill="none" stroke="black" cx="328.07" cy="-19.4" rx="45.47" ry="14.4"></ellipse>
<text text-anchor="middle" x="328.07" y="-16.4" font-family="monospace" font-size="10.00" fill="black">ad 0.01 0.20</text>
</g>
<!-- 5&#45;&gt;11 -->
<g id="0" class="edge">
<title>5-&gt;11</title>
<path fill="none" stroke="black" d="M74.71,-31.48C81.33,-30.69 88.2,-29.95 94.67,-29.4 154.76,-24.31 223.84,-21.76 270.96,-20.51"></path>
<polygon fill="black" stroke="black" points="271.03,-24.01 280.93,-20.26 270.85,-17.01 271.03,-24.01"></polygon>
<text text-anchor="middle" x="101.61" y="-32.4" font-family="monospace" font-size="10.00" fill="black">trig</text>
</g>
<!-- 11&#45;&gt;2 -->
<g id="1" class="edge">
<title>11-&gt;2</title>
<path fill="none" stroke="black" d="M371.54,-23.85C401.49,-26.99 440.99,-31.13 468.43,-34"></path>
<polygon fill="black" stroke="black" points="467.93,-37.47 478.24,-35.03 468.66,-30.51 467.93,-37.47"></polygon>
</g>
</g>
</svg>