<svg width="621pt" height="110pt" viewBox="0.00 0.00 621.18 109.80" xmlns="http://www.w3.org/2000/svg" xmlns:xlink="http://www.w3.org/1999/xlink">
  <g id="graph0" class="graph" transform="scale(1 1) rotate(0) translate(4 105.8)">
  <!-- 0 -->
  <g id="0" class="node">
  <title>0</title>
  <ellipse fill="none" stroke="black" cx="457.68" cy="-87.4" rx="20.76" ry="14.4"></ellipse>
  <text text-anchor="middle" x="457.68" y="-84.4" font-family="monospace" font-size="10.00" fill="black">out</text>
  </g>
  <!-- 1 -->
  <g id="1" class="node">
  <title>1</title>
  <ellipse fill="none" stroke="black" cx="352.69" cy="-40.4" rx="21.15" ry="14.4"></ellipse>
  <text text-anchor="middle" x="352.69" y="-37.4" font-family="monospace" font-size="10.00" fill="black">add</text>
  </g>
  <!-- 1&#45;&gt;0 -->
  <g id="0" class="edge">
  <title>1-&gt;0</title>
  <path fill="none" stroke="black" d="M370.7,-48.16C386.65,-55.44 410.77,-66.45 429.41,-74.96"></path>
  <polygon fill="black" stroke="black" points="427.72,-78.03 438.27,-79 430.63,-71.66 427.72,-78.03"></polygon>
  </g>
  <!-- 12 -->
  <g id="12" class="node">
  <title>12</title>
  <ellipse fill="none" stroke="black" cx="457.68" cy="-40.4" rx="40.06" ry="14.4"></ellipse>
  <text text-anchor="middle" x="457.68" y="-37.4" font-family="monospace" font-size="10.00" fill="black">delay 0.10</text>
  </g>
  <!-- 1&#45;&gt;12 -->
  <g id="0" class="edge">
  <title>1-&gt;12</title>
  <path fill="none" stroke="black" d="M374.04,-40.4C383.27,-40.4 394.64,-40.4 405.97,-40.4"></path>
  <polygon fill="black" stroke="black" points="405.68,-43.9 415.68,-40.4 405.68,-36.9 405.68,-43.9"></polygon>
  <text text-anchor="middle" x="395.73" y="-43.4" font-family="monospace" font-size="10.00" fill="black">in</text>
  </g>
  <!-- 2 -->
  <g id="2" class="node">
  <title>2</title>
  <ellipse fill="none" stroke="black" cx="265.83" cy="-40.4" rx="21.93" ry="14.4"></ellipse>
  <text text-anchor="middle" x="265.83" y="-37.4" font-family="monospace" font-size="10.00" fill="black">mul</text>
  </g>
  <!-- 2&#45;&gt;1 -->
  <g id="0" class="edge">
  <title>2-&gt;1</title>
  <path fill="none" stroke="black" d="M288.24,-40.4C297.81,-40.4 309.27,-40.4 319.81,-40.4"></path>
  <polygon fill="black" stroke="black" points="319.65,-43.9 329.65,-40.4 319.65,-36.9 319.65,-43.9"></polygon>
  <text text-anchor="middle" x="309.65" y="-43.4" font-family="monospace" font-size="10.00" fill="black">in</text>
  </g>
  <!-- 3 -->
  <g id="3" class="node">
  <title>3</title>
  <ellipse fill="none" stroke="black" cx="163.34" cy="-64.4" rx="34.47" ry="14.4"></ellipse>
  <text text-anchor="middle" x="163.34" y="-61.4" font-family="monospace" font-size="10.00" fill="black">sine 200</text>
  </g>
  <!-- 3&#45;&gt;2 -->
  <g id="0" class="edge">
  <title>3-&gt;2</title>
  <path fill="none" stroke="black" d="M193.95,-57.33C206.45,-54.34 221.01,-50.87 233.67,-47.84"></path>
  <polygon fill="black" stroke="black" points="234.27,-51.3 243.18,-45.57 232.64,-44.49 234.27,-51.3"></polygon>
  <text text-anchor="middle" x="222.01" y="-53.4" font-family="monospace" font-size="10.00" fill="black">in</text>
  </g>
  <!-- 5 -->
  <g id="5" class="node">
  <title>5</title>
  <ellipse fill="none" stroke="black" cx="163.34" cy="-17.4" rx="36.79" ry="14.4"></ellipse>
  <text text-anchor="middle" x="163.34" y="-14.4" font-family="monospace" font-size="10.00" fill="black">ad 0 0.10</text>
  </g>
  <!-- 5&#45;&gt;2 -->
  <g id="1" class="edge">
  <title>5-&gt;2</title>
  <path fill="none" stroke="black" d="M195.86,-24.61C207.99,-27.39 221.81,-30.55 233.88,-33.32"></path>
  <polygon fill="black" stroke="black" points="232.8,-36.66 243.33,-35.48 234.37,-29.84 232.8,-36.66"></polygon>
  </g>
  <!-- 6 -->
  <g id="6" class="node">
  <title>6</title>
  <ellipse fill="none" stroke="black" cx="38.33" cy="-17.4" rx="38.33" ry="14.4"></ellipse>
  <text text-anchor="middle" x="38.33" y="-14.4" font-family="monospace" font-size="10.00" fill="black">impulse 1</text>
  </g>
  <!-- 6&#45;&gt;5 -->
  <g id="0" class="edge">
  <title>6-&gt;5</title>
  <path fill="none" stroke="black" d="M76.91,-17.4C88.92,-17.4 102.37,-17.4 114.98,-17.4"></path>
  <polygon fill="black" stroke="black" points="114.75,-20.9 124.75,-17.4 114.75,-13.9 114.75,-20.9"></polygon>
  <text text-anchor="middle" x="101.61" y="-20.4" font-family="monospace" font-size="10.00" fill="black">trig</text>
  </g>
  <!-- 11 -->
  <g id="11" class="node">
  <title>11</title>
  <ellipse fill="none" stroke="black" cx="577.35" cy="-14.4" rx="35.83" ry="14.4"></ellipse>
  <text text-anchor="middle" x="577.35" y="-11.4" font-family="monospace" font-size="10.00" fill="black">mul 0.80</text>
  </g>
  <!-- 11&#45;&gt;1 -->
  <g id="1" class="edge">
  <title>11-&gt;1</title>
  <path fill="none" stroke="black" d="M541.66,-11.83C509.28,-10.2 459.77,-9.64 417.62,-17.4 405.35,-19.66 392.31,-23.98 381.23,-28.27"></path>
  <polygon fill="black" stroke="black" points="380.24,-24.89 372.3,-31.9 382.88,-31.37 380.24,-24.89"></polygon>
  </g>
  <!-- 12&#45;&gt;11 -->
  <g id="0" class="edge">
  <title>12-&gt;11</title>
  <path fill="none" stroke="black" d="M492.4,-32.95C505.45,-30.07 520.53,-26.73 534.28,-23.7"></path>
  <polygon fill="black" stroke="black" points="534.96,-27.13 543.97,-21.56 533.45,-20.3 534.96,-27.13"></polygon>
  <text text-anchor="middle" x="519.64" y="-30.4" font-family="monospace" font-size="10.00" fill="black">in</text>
  </g>
  </g>
  </svg>